<?xml version="1.0" standalone="no"?>
<!DOCTYPE svg PUBLIC "-//W3C//DTD SVG 20010904//EN"
 "http://www.w3.org/TR/2001/REC-SVG-20010904/DTD/svg10.dtd">
<svg version="1.0" xmlns="http://www.w3.org/2000/svg"
 width="5172.000000pt" height="5172.000000pt" viewBox="0 0 5172.000000 5172.000000"
 preserveAspectRatio="xMidYMid meet">
<metadata>
Created by potrace 1.14, written by Peter Selinger 2001-2017
</metadata>
<g transform="translate(0.000000,5172.000000) scale(0.100000,-0.100000)"
fill="#000000" stroke="none">
<path d="M10040 49073 c-41 -8 -79 -15 -85 -17 -292 -81 -508 -252 -654 -518
-59 -107 -127 -314 -146 -444 -4 -21 -8 -46 -10 -54 -26 -98 -26 -618 0 -782
2 -13 6 -48 9 -78 4 -30 8 -66 10 -80 6 -32 14 -100 21 -165 3 -27 8 -61 10
-75 2 -14 7 -43 9 -65 14 -113 27 -213 31 -240 2 -16 9 -70 15 -120 6 -49 13
-101 15 -115 2 -14 6 -47 9 -75 4 -27 8 -61 11 -75 2 -14 7 -50 10 -80 3 -30
7 -66 9 -80 3 -14 7 -47 11 -75 7 -61 25 -201 30 -235 2 -14 7 -54 11 -90 4
-36 8 -67 9 -70 1 -3 5 -36 9 -75 5 -38 9 -77 11 -85 1 -8 6 -42 9 -75 4 -33
9 -67 11 -75 2 -8 6 -42 10 -75 4 -33 15 -127 26 -210 25 -189 27 -200 33
-255 3 -25 7 -59 10 -75 2 -17 7 -55 11 -85 4 -30 8 -66 10 -80 2 -14 6 -50 9
-80 4 -30 8 -66 10 -80 3 -14 12 -83 21 -155 9 -71 18 -141 20 -155 4 -29 12
-95 20 -165 3 -27 8 -61 10 -75 2 -14 6 -45 10 -70 3 -25 7 -61 10 -80 3 -19
7 -53 9 -75 9 -73 27 -210 31 -240 2 -16 7 -52 10 -80 3 -27 10 -79 15 -115 5
-36 12 -84 14 -108 16 -132 27 -220 31 -242 2 -14 7 -52 10 -85 3 -33 9 -69
12 -80 3 -11 6 -71 5 -132 -1 -93 1 -113 13 -113 8 0 16 -10 16 -22 1 -13 3
-32 4 -43 2 -11 6 -47 10 -80 4 -33 9 -63 12 -67 2 -5 -5 -8 -16 -8 -12 0 -21
-5 -21 -11 0 -5 4 -8 8 -5 19 12 31 -15 41 -94 7 -47 13 -98 16 -115 2 -16 7
-57 11 -90 3 -33 8 -68 10 -79 2 -10 6 -44 9 -75 3 -31 8 -68 11 -83 3 -14 7
-46 9 -70 4 -39 8 -69 20 -148 2 -14 6 -47 9 -75 4 -27 8 -66 11 -85 5 -44 44
-345 50 -385 2 -16 7 -57 11 -90 3 -33 8 -67 9 -75 2 -9 6 -43 10 -75 4 -33 8
-71 10 -85 2 -14 9 -65 15 -115 6 -49 13 -101 15 -115 7 -50 20 -152 30 -235
3 -27 8 -63 10 -80 2 -16 7 -48 10 -70 2 -22 7 -56 10 -75 2 -19 7 -57 10 -85
3 -27 8 -63 10 -80 5 -38 23 -174 30 -240 4 -27 10 -77 15 -110 5 -33 14 -100
20 -150 5 -49 12 -101 15 -115 2 -14 6 -47 9 -75 5 -49 8 -70 26 -210 5 -38
12 -88 14 -110 3 -22 10 -76 16 -120 6 -44 13 -100 16 -125 2 -25 6 -61 9 -80
3 -19 8 -53 10 -74 3 -22 7 -51 10 -65 2 -14 7 -55 10 -91 4 -36 8 -67 10 -70
2 -3 6 -39 10 -80 4 -41 8 -77 10 -80 1 -3 6 -32 9 -65 4 -33 8 -71 11 -85 2
-14 6 -45 9 -70 12 -103 18 -146 21 -160 2 -8 7 -49 10 -90 4 -41 9 -78 11
-81 2 -3 6 -31 9 -63 3 -31 7 -71 10 -89 2 -18 9 -70 15 -117 6 -47 13 -96 15
-110 2 -14 6 -47 10 -75 10 -91 16 -130 20 -155 3 -14 7 -50 10 -80 3 -30 8
-66 10 -80 2 -14 9 -63 15 -110 6 -47 13 -98 16 -115 3 -16 7 -50 10 -75 2
-25 6 -52 9 -60 2 -8 7 -40 10 -70 3 -30 12 -95 20 -145 8 -49 16 -110 20
-135 3 -25 8 -56 10 -70 8 -44 15 -87 20 -126 3 -22 7 -50 10 -64 2 -13 7 -42
10 -65 3 -22 13 -80 21 -130 9 -49 17 -101 19 -115 2 -14 6 -38 9 -55 3 -16
12 -70 20 -120 9 -49 18 -101 21 -115 3 -14 12 -61 20 -105 20 -113 24 -131
40 -215 9 -41 17 -84 19 -95 5 -27 76 -366 81 -385 2 -8 9 -37 15 -65 6 -27
14 -61 16 -75 3 -14 10 -43 16 -65 5 -22 12 -48 13 -57 7 -35 127 -515 150
-598 13 -47 40 -146 60 -220 20 -74 43 -155 50 -180 7 -25 23 -76 34 -115 348
-1186 795 -2391 1419 -3820 99 -227 215 -489 250 -565 17 -36 50 -110 75 -165
137 -306 308 -646 456 -908 73 -129 312 -493 340 -517 3 -3 26 -32 51 -65 124
-165 436 -496 650 -690 109 -99 229 -204 455 -400 127 -110 246 -213 265 -231
115 -102 171 -153 220 -198 91 -85 471 -466 549 -551 41 -44 97 -105 125 -135
106 -114 272 -302 299 -338 12 -15 24 -29 27 -32 41 -35 413 -500 616 -770
221 -293 594 -825 594 -847 0 -3 7 -14 15 -23 21 -24 165 -250 165 -260 0 -5
4 -10 8 -12 14 -5 262 -427 262 -444 0 -8 -8 -34 -19 -57 -55 -123 -319 -775
-421 -1042 -92 -237 -171 -441 -180 -460 -25 -57 -233 -607 -420 -1115 -224
-608 -549 -1571 -825 -2444 -69 -220 -128 -402 -130 -406 -2 -3 -6 -17 -9 -31
-4 -22 -189 -617 -252 -814 -14 -44 -28 -87 -29 -95 -2 -8 -24 -82 -50 -165
-225 -732 -477 -1666 -521 -1925 -2 -14 -8 -43 -14 -65 -5 -22 -14 -65 -20
-95 -6 -30 -13 -66 -15 -80 -7 -34 -56 -319 -60 -350 -2 -14 -7 -49 -10 -79
-4 -30 -8 -62 -10 -72 -2 -10 -7 -49 -10 -86 -4 -37 -8 -79 -10 -93 -2 -14 -7
-68 -10 -120 -4 -52 -9 -113 -10 -135 -21 -246 -21 -1070 0 -1355 5 -76 16
-203 21 -247 9 -88 14 -139 19 -173 2 -19 7 -53 9 -75 19 -154 53 -361 82
-497 7 -36 16 -82 20 -102 10 -67 102 -423 148 -573 68 -223 178 -527 244
-674 11 -24 34 -78 52 -119 39 -92 196 -412 245 -500 195 -349 360 -605 578
-895 131 -176 208 -270 367 -455 232 -270 663 -682 965 -921 189 -150 488
-369 504 -369 5 0 11 -4 13 -9 3 -7 75 -56 263 -176 56 -36 212 -128 235 -138
8 -4 47 -25 85 -47 221 -125 647 -321 1019 -470 551 -219 1358 -477 1926 -615
18 -4 149 -35 170 -40 394 -93 992 -212 1205 -240 31 -4 97 -15 126 -20 9 -2
40 -6 69 -10 29 -4 62 -9 74 -11 20 -4 209 -30 289 -39 20 -3 56 -7 80 -10 60
-8 104 -13 167 -20 30 -4 66 -8 80 -10 22 -3 91 -10 220 -21 133 -11 170 -14
210 -19 44 -4 116 -10 275 -20 44 -2 116 -7 160 -10 44 -3 141 -7 215 -10 236
-10 283 -14 360 -30 99 -22 309 -23 410 -2 51 11 161 18 345 22 149 4 290 8
315 10 25 1 101 6 170 10 171 9 325 21 410 30 19 2 73 7 120 10 124 10 254 22
310 30 14 2 59 7 100 10 41 4 83 9 92 10 9 2 48 7 85 10 37 4 75 8 83 10 8 2
40 7 70 10 30 3 66 8 80 10 14 2 45 7 70 10 42 5 85 11 233 35 34 6 76 12 92
15 115 17 422 74 570 105 55 12 111 24 125 26 132 25 642 155 895 229 435 127
1034 340 1380 490 403 176 925 431 1280 625 28 15 82 44 120 65 332 179 828
497 1010 646 11 9 67 54 125 100 58 46 107 86 110 89 3 3 41 36 85 75 216 188
448 425 636 650 402 482 718 1000 970 1586 59 138 167 418 174 449 2 8 10 33
19 55 27 70 145 467 161 545 4 16 23 95 30 120 20 75 97 450 109 535 6 40 15
93 22 130 3 11 9 52 14 90 6 39 12 77 15 85 2 8 6 40 10 71 3 31 8 67 10 80 7
36 29 202 40 309 3 30 8 71 10 90 8 67 17 181 31 390 7 108 7 626 0 745 -3 50
-8 131 -11 180 -3 50 -7 110 -10 135 -2 25 -7 70 -10 100 -9 94 -18 176 -30
268 -9 74 -25 198 -29 222 -5 28 -26 164 -31 195 -3 21 -5 35 -35 205 -11 58
-22 121 -25 140 -5 27 -63 319 -100 503 -2 10 -6 26 -9 35 -3 9 -8 33 -11 52
-3 19 -17 87 -31 150 -33 148 -33 147 -44 200 -5 25 -15 74 -24 110 -21 91
-46 201 -50 225 -3 11 -21 92 -41 180 -20 88 -38 167 -40 175 -2 8 -11 44 -20
80 -9 36 -18 72 -20 80 -9 45 -114 400 -182 615 -19 61 -41 133 -50 160 -9 28
-18 57 -21 65 -10 32 -213 636 -219 650 -3 8 -38 110 -78 225 -117 337 -151
433 -195 555 -23 63 -43 120 -44 125 -2 6 -6 17 -9 25 -3 8 -24 69 -47 135
-23 66 -45 129 -50 140 -4 11 -20 54 -33 95 -14 42 -30 87 -36 100 -5 14 -35
97 -66 185 -31 88 -60 169 -65 180 -4 11 -29 81 -55 155 -48 139 -171 483
-182 510 -3 8 -7 20 -9 25 -1 6 -30 87 -64 180 -34 94 -98 271 -142 395 -86
240 -105 293 -137 380 -11 30 -77 213 -146 405 -70 193 -137 377 -150 410 -12
33 -56 146 -96 250 -66 174 -180 457 -214 530 -7 17 -31 71 -53 120 -22 50
-69 152 -106 228 l-66 138 91 157 c126 216 286 475 409 662 158 241 550 778
681 935 10 11 63 76 119 145 97 117 247 295 280 330 8 9 49 54 90 100 319 357
675 712 1059 1056 24 21 49 44 55 49 6 6 76 67 156 135 80 69 147 127 150 130
3 3 57 50 120 105 404 351 738 683 900 895 19 25 43 54 53 65 10 11 58 76 107
145 206 290 392 617 610 1074 48 102 62 131 124 269 47 105 168 373 188 417
11 25 35 79 53 120 18 41 41 95 53 120 11 25 61 142 112 260 51 118 100 233
110 255 102 230 428 1042 545 1355 25 69 49 132 52 140 4 8 7 17 8 20 1 3 5
12 8 20 4 8 32 85 62 170 31 85 64 178 75 205 10 28 40 111 65 185 25 74 57
164 70 200 53 148 253 771 290 905 8 28 39 136 70 240 31 105 57 197 59 205 2
8 33 125 69 260 66 247 88 336 151 600 32 137 41 178 50 225 2 11 9 38 14 60
10 39 89 421 98 474 3 14 11 60 19 101 8 41 17 89 20 105 3 17 12 66 19 110
18 101 25 137 31 178 3 17 7 43 10 57 3 14 7 40 10 58 8 50 13 80 29 177 8 50
18 110 21 135 3 25 8 52 10 60 2 8 7 40 10 70 3 30 8 62 10 70 4 14 8 44 21
145 3 22 9 65 14 95 5 30 12 78 15 105 4 28 11 79 16 115 6 35 12 84 15 108 2
24 8 72 13 106 10 59 15 101 26 189 3 23 8 53 10 67 2 14 6 45 9 70 13 110 37
301 46 360 5 36 12 88 15 115 3 28 8 65 11 83 10 77 13 100 20 157 3 33 8 67
9 75 2 9 6 43 10 75 4 33 9 71 11 85 2 14 6 50 10 80 3 30 7 62 9 70 2 8 7 44
10 80 4 36 9 72 10 81 2 9 6 40 9 70 4 30 11 88 17 129 5 41 12 89 14 105 26
203 31 239 40 325 3 25 7 56 10 70 2 14 7 50 10 80 4 30 8 66 10 80 2 14 6 45
10 70 3 25 7 61 10 80 3 19 7 53 9 75 13 107 25 198 31 235 2 14 7 50 10 80 3
30 8 66 10 80 2 14 7 50 10 80 3 30 8 62 10 70 2 8 7 46 10 85 4 38 8 72 10
75 2 3 6 32 10 65 5 53 23 196 40 325 4 25 8 59 9 75 2 17 7 53 11 80 3 28 8
64 10 80 2 17 9 68 15 115 6 47 13 103 16 125 9 72 15 119 20 160 2 22 7 51 9
65 2 14 7 50 11 80 11 97 14 123 29 240 20 148 23 174 30 239 3 30 8 57 9 60
2 3 7 42 10 85 4 44 8 82 10 85 4 6 15 89 21 157 2 22 6 54 9 70 3 16 8 56 12
89 3 33 8 67 9 76 2 9 6 40 9 70 7 55 21 159 32 239 3 25 7 57 9 71 3 35 16
140 20 159 1 8 6 42 10 75 4 32 8 67 10 76 2 10 6 46 9 81 3 34 8 74 11 88 3
14 7 48 10 75 3 28 8 61 10 75 3 14 7 50 10 80 3 30 9 80 15 110 5 30 12 84
16 120 3 36 7 72 9 80 1 8 6 42 9 75 4 33 9 71 11 85 2 14 14 99 25 190 11 91
23 176 25 190 2 14 6 52 10 85 4 32 8 66 10 75 1 8 6 42 9 75 4 33 9 75 12 93
10 77 13 101 23 177 6 44 13 103 16 130 4 28 8 61 10 75 4 24 23 170 31 240
12 103 15 126 19 140 2 8 7 46 10 85 4 38 8 72 10 75 2 4 6 35 9 71 3 35 8 75
10 89 3 14 7 48 11 75 3 28 8 64 10 80 2 17 7 53 11 80 3 28 7 64 10 80 5 42
12 101 19 160 4 28 8 61 10 75 2 14 13 99 25 190 29 234 30 237 40 315 9 70
18 138 26 205 4 34 9 68 19 140 3 19 7 56 10 82 3 26 7 62 10 80 15 111 25
190 30 238 4 30 8 69 10 85 22 185 22 552 0 675 -2 14 -7 41 -9 60 -6 42 -14
86 -22 120 -3 14 -7 32 -9 40 -26 113 -84 266 -133 350 -68 118 -204 275 -278
320 -13 8 -24 18 -24 22 0 5 -4 8 -10 8 -5 0 -33 15 -62 34 -75 47 -216 101
-328 124 -77 16 -125 20 -255 17 -88 -1 -173 -5 -190 -9 -16 -3 -46 -9 -65
-12 -97 -15 -380 -96 -465 -133 -11 -5 -47 -19 -80 -32 -216 -81 -576 -255
-787 -378 -258 -151 -419 -255 -678 -439 -96 -69 -177 -127 -180 -131 -3 -3
-41 -33 -85 -65 -44 -33 -82 -62 -85 -65 -3 -4 -23 -20 -45 -36 -51 -38 -427
-346 -440 -360 -5 -6 -39 -36 -75 -65 -36 -30 -101 -86 -145 -125 -44 -38
-107 -92 -138 -119 -32 -28 -70 -61 -85 -75 -15 -14 -56 -51 -91 -81 -35 -30
-69 -60 -75 -65 -6 -6 -69 -62 -141 -125 -71 -62 -132 -116 -135 -119 -3 -3
-41 -37 -85 -76 -44 -38 -87 -76 -96 -85 -9 -8 -44 -40 -79 -70 -35 -30 -68
-59 -74 -65 -6 -5 -51 -46 -101 -90 -49 -44 -92 -82 -95 -85 -3 -3 -45 -41
-95 -85 -49 -44 -97 -87 -105 -95 -8 -8 -60 -55 -115 -104 -55 -50 -104 -95
-110 -100 -5 -6 -57 -54 -114 -106 -58 -52 -117 -106 -131 -120 -15 -14 -58
-54 -96 -89 -223 -207 -458 -434 -754 -731 -327 -327 -425 -428 -640 -660
-154 -165 -159 -171 -230 -250 -36 -40 -78 -87 -95 -104 -16 -18 -57 -63 -90
-101 -82 -93 -83 -95 -140 -160 -27 -32 -55 -63 -60 -69 -34 -36 -271 -316
-390 -461 -77 -93 -142 -172 -145 -175 -18 -17 -407 -513 -571 -730 -433 -571
-1002 -1399 -1329 -1935 -8 -13 -40 -64 -70 -112 -30 -48 -60 -97 -66 -108 -5
-11 -29 -49 -51 -85 -63 -101 -200 -336 -321 -550 -61 -107 -130 -229 -154
-270 -24 -41 -45 -82 -47 -90 -1 -8 -9 -22 -16 -30 -7 -8 -38 -64 -70 -125
-32 -60 -87 -164 -122 -230 -61 -115 -450 -897 -488 -980 -10 -22 -38 -83 -63
-135 -24 -52 -53 -115 -64 -140 -11 -25 -31 -70 -45 -100 -77 -169 -213 -484
-297 -690 -53 -129 -101 -244 -105 -255 -5 -11 -32 -81 -61 -155 -29 -74 -60
-155 -70 -180 -163 -405 -457 -1273 -740 -2180 -114 -367 -123 -395 -255 -830
-52 -173 -106 -351 -120 -395 -56 -183 -205 -710 -220 -775 -1 -8 -26 -110
-53 -225 -28 -116 -53 -221 -56 -235 -48 -233 -54 -267 -90 -485 -24 -145 -38
-244 -41 -275 -3 -30 -17 -156 -20 -180 -2 -14 -7 -70 -11 -125 -4 -55 -9
-116 -11 -135 -2 -19 -6 -370 -8 -780 -3 -692 -9 -1022 -20 -1145 -2 -27 -7
-84 -10 -125 -3 -41 -8 -93 -10 -115 -9 -87 -14 -143 -20 -210 -3 -38 -8 -90
-10 -115 -8 -68 -13 -118 -20 -190 -3 -36 -8 -72 -10 -80 -2 -8 -7 -40 -10
-70 -8 -71 -41 -235 -67 -330 -56 -206 -164 -416 -285 -550 l-46 -52 -51 7
c-28 3 -82 8 -121 11 -38 2 -92 6 -120 9 -305 28 -939 23 -1310 -10 -44 -4
-93 -9 -110 -10 -16 -1 -66 -6 -110 -11 -44 -5 -114 -8 -155 -7 -373 8 -819 2
-890 -12 -18 -4 -108 83 -181 175 -202 255 -321 608 -374 1115 -4 33 -8 71
-10 85 -2 14 -6 54 -10 90 -3 36 -8 85 -11 110 -7 60 -11 108 -19 205 -3 44
-9 107 -12 140 -3 33 -7 384 -8 780 -3 667 -9 1074 -19 1135 -3 14 -7 68 -11
121 -3 52 -8 106 -10 120 -2 13 -6 49 -9 79 -3 30 -7 71 -10 90 -3 19 -15 98
-26 175 -21 147 -27 184 -35 225 -3 14 -8 39 -11 55 -5 30 -61 302 -70 340 -2
11 -6 31 -9 45 -23 123 -212 824 -305 1130 -15 52 -42 140 -59 195 -39 129
-186 612 -210 690 -261 842 -413 1312 -579 1790 -65 185 -204 570 -219 605 -3
8 -7 20 -9 25 -7 29 -269 685 -319 800 -7 17 -19 46 -28 65 -8 19 -34 80 -57
135 -23 55 -55 128 -71 163 -16 35 -29 65 -29 67 0 2 -13 32 -29 67 -16 35
-51 113 -79 173 -27 61 -71 155 -97 210 -26 55 -58 125 -72 155 -44 96 -339
689 -416 835 -111 211 -188 357 -207 390 -10 17 -32 57 -50 90 -168 306 -271
484 -611 1053 -28 47 -240 384 -284 452 -23 36 -69 105 -101 155 -32 49 -68
104 -79 122 -60 96 -508 748 -542 788 -5 6 -30 42 -58 80 -267 381 -879 1166
-1211 1555 -252 294 -397 462 -524 603 -25 27 -52 58 -60 67 -41 47 -197 216
-383 415 -223 238 -711 728 -977 983 -154 147 -233 221 -267 253 -18 16 -70
64 -115 106 -46 43 -133 123 -193 178 -60 55 -116 107 -125 115 -8 8 -128 116
-265 239 -138 123 -266 238 -285 255 -19 18 -100 90 -180 160 -80 71 -177 158
-216 193 -79 71 -84 74 -175 153 -35 30 -78 69 -96 85 -18 17 -39 35 -46 41
-34 29 -343 299 -347 304 -21 23 -390 330 -570 474 -756 604 -1496 1032 -2145
1239 -307 98 -586 129 -795 90z m11250 -27793 c0 -5 -2 -10 -4 -10 -3 0 -8 5
-11 10 -3 6 -1 10 4 10 6 0 11 -4 11 -10z m-1040 -599 c0 -6 -4 -12 -8 -15 -5
-3 -9 1 -9 9 0 8 4 15 9 15 4 0 8 -4 8 -9z m164 -123 c-3 -4 -9 -8 -15 -8 -5
0 -9 4 -9 8 0 5 7 9 15 9 8 0 12 -4 9 -9z m11590 -64 c3 -8 2 -12 -4 -9 -6 3
-10 10 -10 16 0 14 7 11 14 -7z m-13109 -434 c3 -6 -1 -7 -9 -4 -18 7 -21 14
-7 14 6 0 13 -4 16 -10z m12906 -787 c13 -16 12 -17 -3 -4 -17 13 -22 21 -14
21 2 0 10 -8 17 -17z m-597 -291 c3 -5 -1 -9 -9 -9 -8 0 -12 4 -9 9 3 4 7 8 9
8 2 0 6 -4 9 -8z m-1201 -3217 c-3 -9 -8 -14 -10 -11 -3 3 -2 9 2 15 9 16 15
13 8 -4z m-5598 -2994 c3 -5 2 -12 -3 -15 -5 -3 -9 1 -9 9 0 17 3 19 12 6z
m360 -160 c3 -5 2 -12 -3 -15 -5 -3 -9 1 -9 9 0 17 3 19 12 6z"/>
</g>
</svg>
